<?xml version="1.0" encoding="utf-8"?>
<!-- Generator: Adobe Illustrator 16.0.0, SVG Export Plug-In . SVG Version: 6.00 Build 0)  -->
<!DOCTYPE svg PUBLIC "-//W3C//DTD SVG 1.1//EN" "http://www.w3.org/Graphics/SVG/1.1/DTD/svg11.dtd">
<svg version="1.1" id="Layer_1" xmlns="http://www.w3.org/2000/svg" xmlns:xlink="http://www.w3.org/1999/xlink" x="0px" y="0px"
	 width="1373.726px" height="587.882px" viewBox="0 0 1373.726 587.882" enable-background="new 0 0 1373.726 587.882"
	 xml:space="preserve">
<path fill="#000" d="M211.761,176.286c-3.562-3.278-7.711-6.083-12.332-8.348v-0.001c-0.014-0.005-0.023-0.009-0.037-0.017
	c-0.006-0.005-0.016-0.009-0.024-0.014c-0.022-0.01-0.047-0.021-0.073-0.033c-8.978-4.643-19.388-7.045-30.945-7.141l-0.157-0.011
	c-3.653-0.244-7.286-0.242-10.797,0l-0.66,0.045c-7.776,0.522-27.309,1.836-42.346,15.079V101.75h-20.8v223.583h15.6h5.201h1.17
	v-97.424l0.011-2.789c0.121-14.417,4.595-26.108,12.94-33.808c9.911-9.143,23.937-10.021,29.925-10.394l0.552-0.034
	c2.527-0.163,5.09-0.163,7.599-0.002l0.528,0.035c4.066,0.255,12.528,0.787,20.546,4.339c14.176,6.743,21.984,21.11,21.984,40.454
	v99.624h21.501V225.71C231.148,205.049,224.444,187.959,211.761,176.286"/>
<path fill="#000" d="M637.229,294.363l0.275,32.205h20.78l-0.339-226.167h-20.793v91.902
	c-14.507-21.055-37.531-32.938-64.476-32.938c-46.768,0-83.401,36.909-83.401,84.024c0,47.118,36.634,84.025,83.401,84.025
	C599.669,327.414,622.729,315.484,637.229,294.363 M637.152,243.388c0,35.806-27.909,63.854-63.541,63.854
	c-35.628,0-63.538-28.048-63.538-63.854c0-35.803,27.909-63.85,63.538-63.85C609.243,179.538,637.152,207.585,637.152,243.388"/>
<path fill="#000" d="M780.324,230.598c-21.361-5.468-39.811-10.193-39.811-27.454c0-18.364,18.061-26.727,34.838-26.727
	c17.91,0,31.938,8.255,37.521,22.084l1.115,2.761l17.725-10.127l-0.949-2.146c-9.074-20.503-29.791-32.746-55.412-32.746
	c-32.236,0-55.637,19.726-55.637,46.902c0,32.055,28.777,39.506,54.164,46.08c21.66,5.608,40.365,10.452,40.365,28.17
	c0,19.727-20.277,26.725-37.646,26.725c-21.811,0-38.033-9.599-43.393-25.675l-1.012-3.033l-18.074,10.514l0.77,2.054
	c8.529,22.742,31.6,36.313,61.709,36.313c34.412,0,58.445-19.283,58.445-46.897C835.042,244.61,805.97,237.168,780.324,230.598"/>
<path fill="#000" d="M981.667,156.243c-47.467,0-84.65,36.91-84.65,84.026c0,47.118,37.184,84.023,84.65,84.023
	c47.291,0,84.338-36.905,84.338-84.023C1066.005,193.153,1028.958,156.243,981.667,156.243 M1044.894,240.269
	c0,35.806-27.771,63.852-63.227,63.852c-35.629,0-63.537-28.045-63.537-63.852c0-35.803,27.908-63.851,63.537-63.851
	C1017.125,176.418,1044.894,204.466,1044.894,240.269"/>
<path fill="#000" d="M429.771,159.502H408.66v99.625c0,14.684-4.479,26.579-12.952,34.395
	c-9.907,9.14-23.931,10.019-29.918,10.394l-0.559,0.035c-2.529,0.16-5.092,0.16-7.618,0l-0.558-0.035
	c-5.989-0.375-20.012-1.254-29.919-10.392c-8.474-7.817-12.952-19.712-12.952-34.396v-99.625h-21.11v99.625
	c0,20.659,6.704,37.75,19.385,49.422c14.909,13.72,35.295,15.029,42.971,15.527l0.598,0.037c1.824,0.121,3.646,0.178,5.448,0.178
	c1.805,0,3.593-0.057,5.35-0.178l0.659-0.046c8.512-0.571,31.119-2.095,46.489-19.175c10.333-11.491,15.798-27.317,15.798-45.767
	V159.502z"/>
<path fill="#000" d="M1246.986,172.217c-15.104-13.898-35.76-15.229-43.537-15.731l-0.607-0.038
	c-3.709-0.246-7.389-0.243-10.938,0l-0.67,0.044c-8.623,0.581-31.535,2.12-47.107,19.43c-10.469,11.64-16.004,27.676-16.004,46.373
	v100.96h21.33v-100.96c0-14.897,4.545-26.964,13.143-34.897c10.055-9.278,24.279-10.167,30.355-10.545l0.561-0.035
	c2.566-0.164,5.168-0.164,7.729,0l0.562,0.035c6.074,0.379,20.303,1.27,30.354,10.545c8.598,7.933,13.143,20,13.143,34.897v100.96
	h21.332v-100.96C1266.63,201.358,1259.835,184.042,1246.986,172.217"/>
<polygon fill="#000" points="152.472,462.611 146.96,462.611 146.96,397.923 120.026,442.642 119.088,442.642 92.154,397.923 
	92.154,462.611 86.645,462.611 86.645,389.812 93.506,389.812 119.504,432.865 145.503,389.812 152.472,389.812 "/>
<polygon fill="#000" points="248.77,457.41 248.77,462.611 206.857,462.611 206.857,389.812 248.248,389.812 248.248,395.011 
	212.368,395.011 212.368,423.298 245.648,423.298 245.648,428.5 212.368,428.5 212.368,457.41 "/>
<path fill="#000" d="M360.247,426.212c0,20.068-14.251,36.398-34.319,36.398h-27.354v-72.8h27.354
	C345.996,389.812,360.247,406.138,360.247,426.212 M354.838,426.212c0-17.266-11.751-31.201-28.911-31.201h-21.84v62.398h21.84
	C343.087,457.41,354.838,443.474,354.838,426.212"/>
<rect x="410.468" y="389.812" fill="#000" width="5.519" height="72.799"/>
<path fill="#000" d="M466.21,426.212c0-20.799,15.705-37.547,37.853-37.547c13.418,0,25.165,6.867,31.199,17.473l-4.887,2.809
	c-4.783-8.943-14.873-14.975-26.312-14.975c-19.135,0-32.343,14.352-32.343,32.24c0,17.887,13.208,32.236,32.343,32.236
	c11.545,0,21.735-6.133,26.52-15.287l4.89,2.809c-5.932,10.711-17.787,17.785-31.409,17.785
	C481.915,463.755,466.21,447.011,466.21,426.212"/>
<path fill="#000" d="M625.624,444.099h-36.498l-7.069,18.512h-5.826l28.289-72.799h5.819l28.186,72.799h-5.823L625.624,444.099z
	 M623.652,438.9l-16.226-42.328L591.205,438.9H623.652z"/>
<polygon fill="#000" points="726.884,457.41 726.884,462.611 687.055,462.611 687.055,389.812 692.566,389.812 692.566,457.41 
	"/>
<path fill="#000" d="M862.484,432.535c0,17.574-13.42,32.238-35.152,32.238c-22.566,0-38.27-16.744-38.27-37.545
	s15.701-37.543,37.855-37.543c13.516,0,25.27,7.072,31.303,17.574l-4.891,2.914c-4.779-9.152-14.977-15.184-26.412-15.184
	c-19.135,0-32.342,14.352-32.342,32.238c0,17.891,13.207,32.236,32.756,32.236c17.68,0,28.391-10.916,29.533-24.539h-30.887v-5.201
	h36.504v2.811H862.484z"/>
<path fill="#000" d="M941.916,433.783h-22.982v29.846h-5.514V390.83h28.699c11.861,0,21.531,9.672,21.531,21.529
	c0,9.877-6.762,18.197-16.018,20.695l18.096,30.574h-6.344L941.916,433.783z M918.931,428.582h23.188
	c8.844,0,16.02-7.279,16.02-16.223c0-9.051-7.178-16.328-16.02-16.328h-23.188V428.582z"/>
<path fill="#000" d="M1010.115,427.228c0-20.801,16.537-37.543,37.543-37.543c21.008,0,37.541,16.742,37.541,37.543
	s-16.533,37.545-37.541,37.545C1026.652,464.773,1010.115,448.029,1010.115,427.228 M1079.689,427.228
	c0-17.885-14.037-32.238-32.031-32.238s-32.035,14.354-32.035,32.238c0,17.891,14.041,32.238,32.035,32.238
	S1079.689,445.119,1079.689,427.228"/>
<path fill="#000" d="M1134.679,439.292V390.83h5.51v48.463c0,11.855,7.389,20.174,21.113,20.174
	c13.83,0,21.213-8.316,21.213-20.174V390.83h5.516v48.463c0,15.393-10.713,25.48-26.729,25.48S1134.679,454.685,1134.679,439.292"/>
<path fill="#000" d="M1289.615,413.398c0,12.793-9.57,22.463-22.676,22.463h-19.236v27.768h-5.516v-72.797h24.752
	C1280.042,390.832,1289.615,400.501,1289.615,413.398 M1284.103,413.398c0-10.09-7.184-17.367-17.164-17.367h-19.236v34.629h19.236
	C1276.919,430.66,1284.103,423.382,1284.103,413.398"/>
</svg>
